#define iconify_hover_width 11
#define iconify_hover_height 11
static unsigned char iconify_hover_bits[] = {
   0x00, 0x00, 0xf8, 0x00, 0x8c, 0x01, 0x06, 0x03, 0x02, 0x02, 0x72, 0x02,
   0x02, 0x02, 0x06, 0x03, 0x8c, 0x01, 0xf8, 0x00, 0x00, 0x00 };
