#define iconify_width 11
#define iconify_height 11
static unsigned char iconify_bits[] = {
   0x00, 0x00, 0xf8, 0x00, 0xfc, 0x01, 0x8e, 0x03, 0x06, 0x03, 0x06, 0x03,
   0x06, 0x03, 0x8e, 0x03, 0xfc, 0x01, 0xf8, 0x00, 0x00, 0x00 };
