#define max_hover_width 11
#define max_hover_height 11
static unsigned char max_hover_bits[] = {
   0x00, 0x00, 0xf8, 0x00, 0x8c, 0x01, 0x06, 0x03, 0x22, 0x02, 0x72, 0x02,
   0x22, 0x02, 0x06, 0x03, 0x8c, 0x01, 0xf8, 0x00, 0x00, 0x00 };
